<?xml version="1.0" encoding="utf-8"?>
<!-- Generator: Adobe Illustrator 18.0.0, SVG Export Plug-In . SVG Version: 6.00 Build 0)  -->
<!DOCTYPE svg PUBLIC "-//W3C//DTD SVG 1.1//EN" "http://www.w3.org/Graphics/SVG/1.1/DTD/svg11.dtd">
<svg version="1.1" id="Layer_1" xmlns="http://www.w3.org/2000/svg" xmlns:xlink="http://www.w3.org/1999/xlink" x="0px" y="0px"
	 viewBox="0 0 800 201" enable-background="new 0 0 800 201" xml:space="preserve">
<g>
	<g>
		<g>
			<path fill="#231F20" d="M28.2,59L15.8,33c-3-6.2-6-13.1-7-16.4l-0.2,0.2C8.9,21.5,9,27.3,9,32.2L9.4,59h-9V3.6h10.4l13.4,27
				c2.6,5.1,5,11.7,5.7,14.2l0.2-0.2c-0.2-2.8-0.8-10.7-0.8-15.8L29.1,3.6h8.7V59H28.2z"/>
			<path fill="#231F20" d="M54.8,41.2v0.6c0,5.6,2.1,11.5,10,11.5c3.8,0,7-1.4,10.1-4l3.4,5.4C74,58.3,69.2,60,63.7,60
				c-11.4,0-18.6-8.2-18.6-21.2c0-7.1,1.5-11.8,5-15.8c3.3-3.8,7.3-5.4,12.4-5.4c4,0,7.7,1,11.1,4.2c3.5,3.2,5.3,8.2,5.3,17.6v1.8
				H54.8z M62.5,24.2c-5,0-7.7,3.9-7.7,10.5h15C69.8,28.1,66.9,24.2,62.5,24.2z"/>
			<path fill="#231F20" d="M124.1,59.2h-8.2l-5-18.6c-1.3-4.8-2.6-11-2.6-11h-0.2c0,0-0.6,4-2.6,11.4l-4.9,18.2h-8.2l-11-40.1
				l8.7-1.2l4.4,19.6c1.1,5,2.1,10.6,2.1,10.6h0.2c0,0,0.8-5.3,2.3-10.9l5.2-18.7h8.6l4.6,18.2c1.7,6.6,2.6,11.5,2.6,11.5h0.2
				c0,0,1-6.2,2-10.9l4.2-18.9h9.1L124.1,59.2z"/>
			<path fill="#231F20" d="M186.1,59l-4.8-8.6c-3.8-6.8-6.4-10.6-9.4-13.7c-1-1-1.8-1.6-3.6-1.7V59h-9V3.6h16.9
				c12.4,0,18,7.2,18,15.8c0,7.9-5.1,15.2-13.8,15.2c2,1,5.7,6.4,8.6,11l8.2,13.3H186.1z M173.3,11.1h-5v17.5h4.7
				c4.8,0,7.4-0.6,9-2.3c1.5-1.5,2.5-3.8,2.5-6.7C184.5,14,181.5,11.1,173.3,11.1z"/>
			<path fill="#231F20" d="M210,41.2v0.6c0,5.6,2.1,11.5,10,11.5c3.8,0,7-1.4,10.1-4l3.4,5.4c-4.2,3.6-9.1,5.4-14.6,5.4
				c-11.4,0-18.6-8.2-18.6-21.2c0-7.1,1.5-11.8,5-15.8c3.3-3.8,7.3-5.4,12.4-5.4c4,0,7.7,1,11.1,4.2c3.5,3.2,5.3,8.2,5.3,17.6v1.8
				H210z M217.7,24.2c-5,0-7.7,3.9-7.7,10.5h15C225,28.1,222.1,24.2,217.7,24.2z"/>
			<path fill="#231F20" d="M249.4,59.9c-8.9,0-8.9-8-8.9-11.4V14c0-5.5-0.2-8.5-0.8-11.8l9-2c0.6,2.5,0.7,5.8,0.7,11.1v34.3
				c0,5.4,0.2,6.3,0.9,7.3c0.5,0.7,1.8,1.1,2.9,0.6l1.4,5.4C253.1,59.6,251.4,59.9,249.4,59.9z"/>
			<path fill="#231F20" d="M266.7,12.5c-3.2,0-5.7-2.6-5.7-5.8c0-3.3,2.6-5.9,5.8-5.9c3.1,0,5.8,2.6,5.8,5.9
				C272.6,9.9,270,12.5,266.7,12.5z M262.3,59V19.2l8.9-1.6V59H262.3z"/>
			<path fill="#231F20" d="M297.2,60c-11,0-17.2-7.8-17.2-20.8c0-14.7,8.8-21.8,17.8-21.8c4.4,0,7.6,1,11.2,4.4l-4.4,5.8
				c-2.4-2.2-4.5-3.1-6.8-3.1c-2.8,0-5.1,1.4-6.4,4.1c-1.2,2.5-1.7,6.2-1.7,11.3c0,5.5,0.9,9,2.7,11c1.3,1.4,3.2,2.3,5.4,2.3
				c2.8,0,5.5-1.4,8.2-4l4.2,5.4C306.5,58.4,302.6,60,297.2,60z"/>
		</g>
		<path fill="#231F20" d="M328.8,59.9c-6.6,0-12-5.3-12-12.1c0-6.7,5.4-12.1,12-12.1c6.6,0,12,5.4,12,12.1
			C340.8,54.6,335.4,59.9,328.8,59.9z M328.8,38.1c-5.1,0-9.3,4.3-9.3,9.7c0,5.4,4.1,9.8,9.3,9.8c5.1,0,9.3-4.4,9.3-9.8
			C338.1,42.4,333.9,38.1,328.8,38.1z M331.1,54.5c-0.5-0.9-0.7-1.3-1.3-2.2c-1.3-2.4-1.8-3.1-2.2-3.3c-0.1-0.1-0.3-0.1-0.4-0.1v5.7
			h-2.7V41h5c2.4,0,4,1.6,4,4c0,2-1.4,3.7-3,3.7c0.3,0.2,0.4,0.4,0.6,0.6c0.8,1,3.3,5.3,3.3,5.3H331.1z M329.7,43.3
			c-0.3-0.1-0.9-0.2-1.5-0.2h-1v3.7h0.9c1.2,0,1.7-0.1,2-0.5c0.3-0.3,0.5-0.8,0.5-1.4C330.7,44.1,330.4,43.6,329.7,43.3z"/>
	</g>
	<g>
		<path fill="#F1BB55" d="M0,75.5h27.1v123.3H0V75.5z"/>
		<path fill="#F1BB55" d="M43.8,75.5h25l57.8,75.9V75.5h26.8v123.3h-23.1l-59.7-78.4v78.4H43.8V75.5z"/>
		<path fill="#F1BB55" d="M163.9,180.8l16-19.2c11.1,9.2,22.7,15,36.8,15c11.1,0,17.8-4.4,17.8-11.6v-0.4c0-6.9-4.2-10.4-24.8-15.7
			c-24.8-6.3-40.9-13.2-40.9-37.7v-0.4c0-22.4,18-37.2,43.1-37.2c18,0,33.3,5.6,45.8,15.7l-14.1,20.4c-10.9-7.6-21.7-12.2-32.1-12.2
			c-10.4,0-15.8,4.8-15.8,10.7v0.4c0,8.1,5.3,10.7,26.6,16.2c25,6.5,39.1,15.5,39.1,37v0.4c0,24.5-18.7,38.2-45.3,38.2
			C197.6,200.5,178.7,194,163.9,180.8z"/>
		<path fill="#F1BB55" d="M275.8,75.5h27.1v123.3h-27.1V75.5z"/>
		<path fill="#F1BB55" d="M314.2,137.5v-0.4c0-35,27.3-63.8,64.6-63.8c22.2,0,35.6,6,48.4,16.9l-17.1,20.6
			c-9.5-7.9-18-12.5-32.2-12.5c-19.7,0-35.4,17.4-35.4,38.4v0.4c0,22.5,15.5,39.1,37.3,39.1c9.9,0,18.7-2.5,25.5-7.4v-17.6h-27.3
			v-23.4h53.5v53.5c-12.7,10.7-30.1,19.6-52.7,19.6C340.6,200.9,314.2,173.9,314.2,137.5z"/>
		<path fill="#F1BB55" d="M443.6,75.5h27.1v48.8h50V75.5h27.1v123.3h-27.1v-49.5h-50v49.5h-27.1V75.5z"/>
		<path fill="#F1BB55" d="M595.6,100.5h-37.5v-25h102.2v25h-37.5v98.3h-27.1V100.5z"/>
		<path fill="#F1BB55" d="M666.4,180.8l16-19.2c11.1,9.2,22.7,15,36.8,15c11.1,0,17.8-4.4,17.8-11.6v-0.4c0-6.9-4.2-10.4-24.8-15.7
			c-24.8-6.3-40.9-13.2-40.9-37.7v-0.4c0-22.4,18-37.2,43.2-37.2c18,0,33.3,5.6,45.8,15.7l-14.1,20.4c-10.9-7.6-21.7-12.2-32.1-12.2
			c-10.4,0-15.8,4.8-15.8,10.7v0.4c0,8.1,5.3,10.7,26.6,16.2c25,6.5,39.1,15.5,39.1,37v0.4c0,24.5-18.7,38.2-45.3,38.2
			C700,200.5,681.2,194,666.4,180.8z"/>
	</g>
	<g>
		<path fill="#F0BB55" d="M771.6,76h-5.4v-2.3h13.1V76H774v14.5h-2.4V76z M783,73.7h2.6l6,9.2l5.9-9.2h2.5v16.7h-2.3V77.6l-6,9.1
			h-0.3l-5.9-9.1v12.8H783V73.7z"/>
	</g>
</g>
</svg>
