<?xml version="1.0" encoding="utf-8"?>
<!-- Generator: Adobe Illustrator 18.0.0, SVG Export Plug-In . SVG Version: 6.00 Build 0)  -->
<!DOCTYPE svg PUBLIC "-//W3C//DTD SVG 1.1//EN" "http://www.w3.org/Graphics/SVG/1.1/DTD/svg11.dtd">
<svg version="1.1" id="Layer_1" xmlns="http://www.w3.org/2000/svg" xmlns:xlink="http://www.w3.org/1999/xlink" x="0px" y="0px"
	 viewBox="0 0 800 201" enable-background="new 0 0 800 201" xml:space="preserve">
<g>
	<g>
		<g>
			<path d="M29.1,59.1L16.8,33.2c-3-6.2-6-13.1-7-16.4L9.6,17C9.9,21.7,10,27.5,10,32.4l0.4,26.7h-9V3.8h10.4l13.4,26.9
				c2.6,5.1,5,11.7,5.7,14.2l0.2-0.2c-0.2-2.8-0.8-10.7-0.8-15.8L30,3.8h8.7v55.3H29.1z"/>
			<path d="M55.7,41.3v0.6c0,5.6,2.1,11.5,10,11.5c3.8,0,7-1.4,10.1-4l3.4,5.4c-4.3,3.6-9.1,5.3-14.6,5.3C53.2,60.1,46,51.9,46,39
				c0-7.1,1.5-11.8,5-15.8c3.3-3.8,7.3-5.4,12.4-5.4c4,0,7.7,1,11.1,4.2c3.5,3.2,5.3,8.2,5.3,17.6v1.8H55.7z M63.3,24.4
				c-5,0-7.7,3.9-7.7,10.5h15C70.6,28.3,67.7,24.4,63.3,24.4z"/>
			<path d="M124.8,59.3h-8.2l-5-18.6c-1.3-4.8-2.6-11-2.6-11h-0.2c0,0-0.6,4-2.6,11.4l-4.9,18.2h-8.2l-11-40l8.7-1.2l4.4,19.6
				c1.1,5,2.1,10.6,2.1,10.6h0.2c0,0,0.8-5.3,2.3-10.9l5.2-18.7h8.6l4.6,18.2c1.7,6.6,2.6,11.5,2.6,11.5h0.2c0,0,1-6.2,2-10.9
				l4.2-18.9h9.1L124.8,59.3z"/>
			<path d="M186.6,59.1l-4.8-8.6c-3.8-6.8-6.4-10.6-9.4-13.7c-1-1-1.8-1.6-3.6-1.7v23.9h-9V3.8h16.9c12.4,0,18,7.2,18,15.8
				c0,7.9-5.1,15.2-13.8,15.2c2,1,5.7,6.4,8.6,11l8.2,13.3L186.6,59.1L186.6,59.1z M173.9,11.3h-5v17.5h4.7c4.8,0,7.4-0.6,9-2.3
				c1.5-1.5,2.5-3.8,2.5-6.7C185,14.2,182,11.3,173.9,11.3z"/>
			<path d="M210.5,41.3v0.6c0,5.6,2.1,11.5,10,11.5c3.8,0,7-1.4,10.1-4l3.4,5.4c-4.2,3.6-9.1,5.4-14.6,5.4
				c-11.4,0-18.6-8.2-18.6-21.1c0-7.1,1.5-11.8,5-15.8c3.3-3.8,7.3-5.4,12.4-5.4c4,0,7.7,1,11.1,4.2c3.5,3.2,5.3,8.2,5.3,17.6v1.8
				L210.5,41.3L210.5,41.3z M218.2,24.4c-5,0-7.7,3.9-7.7,10.5h15C225.4,28.3,222.5,24.4,218.2,24.4z"/>
			<path d="M249.8,60c-8.9,0-8.9-8-8.9-11.4V14.2c0-5.5-0.2-8.5-0.8-11.8l9-2c0.6,2.5,0.7,5.8,0.7,11.1v34.2c0,5.4,0.2,6.3,0.9,7.3
				c0.5,0.7,1.8,1.1,2.9,0.6L255,59C253.5,59.7,251.8,60,249.8,60z"/>
			<path d="M267,12.7c-3.2,0-5.7-2.6-5.7-5.8c0-3.3,2.6-5.9,5.8-5.9c3.1,0,5.8,2.6,5.8,5.9C272.9,10.1,270.3,12.7,267,12.7z
				 M262.6,59.1V19.4l8.9-1.6v41.3H262.6z"/>
			<path d="M297.5,60.1c-11,0-17.2-7.8-17.2-20.7c0-14.7,8.8-21.7,17.8-21.7c4.4,0,7.6,1,11.2,4.4l-4.4,5.8
				c-2.4-2.2-4.5-3.1-6.8-3.1c-2.8,0-5.1,1.4-6.4,4.1c-1.2,2.5-1.7,6.2-1.7,11.3c0,5.5,0.9,9,2.7,11c1.3,1.4,3.2,2.3,5.4,2.3
				c2.8,0,5.5-1.4,8.2-4l4.2,5.4C306.7,58.5,302.8,60.1,297.5,60.1z"/>
		</g>
		<path d="M329,60c-6.6,0-12-5.3-12-12.1c0-6.7,5.4-12.1,12-12.1c6.6,0,12,5.4,12,12.1C340.9,54.7,335.6,60,329,60z M329,38.3
			c-5.1,0-9.3,4.3-9.3,9.7s4.1,9.8,9.3,9.8c5.1,0,9.3-4.4,9.3-9.8C338.3,42.5,334.1,38.3,329,38.3z M331.3,54.6
			c-0.5-0.9-0.7-1.3-1.3-2.2c-1.3-2.4-1.8-3.1-2.2-3.3c-0.1-0.1-0.3-0.1-0.4-0.1v5.7h-2.7V41.1h5c2.4,0,4,1.6,4,4c0,2-1.4,3.7-3,3.7
			c0.3,0.2,0.4,0.4,0.6,0.6c0.8,1,3.3,5.3,3.3,5.3L331.3,54.6L331.3,54.6z M329.9,43.4c-0.3-0.1-0.9-0.2-1.5-0.2h-1v3.7h0.9
			c1.2,0,1.7-0.1,2-0.5c0.3-0.3,0.5-0.8,0.5-1.4C330.9,44.2,330.6,43.7,329.9,43.4z"/>
	</g>
	<g>
		<path d="M1,75.6h27v123H1V75.6z"/>
		<path d="M44.7,75.6h24.9l57.7,75.7V75.6H154v123h-23l-59.6-78.2v78.2H44.7V75.6z"/>
		<path d="M164.5,180.6l16-19.2c11.1,9.2,22.6,15,36.7,15c11.1,0,17.8-4.4,17.8-11.6v-0.4c0-6.9-4.2-10.4-24.7-15.7
			c-24.7-6.3-40.8-13.2-40.8-37.6v-0.4c0-22.3,18-37.1,43-37.1c18,0,33.2,5.6,45.7,15.7L244,109.7c-10.9-7.6-21.6-12.2-32-12.2
			c-10.4,0-15.8,4.8-15.8,10.7v0.4c0,8.1,5.3,10.7,26.5,16.2c24.9,6.5,39,15.5,39,36.9v0.4c0,24.4-18.7,38.1-45.2,38.1
			C198.1,200.3,179.3,193.8,164.5,180.6z"/>
		<path d="M276.1,75.6h27v123h-27V75.6z"/>
		<path d="M314.4,137.4V137c0-34.9,27.2-63.6,64.4-63.6c22.1,0,35.5,6,48.3,16.9l-17.1,20.5c-9.5-7.9-18-12.5-32.1-12.5
			c-19.7,0-35.3,17.4-35.3,38.3v0.4c0,22.4,15.5,39,37.2,39c9.9,0,18.7-2.5,25.4-7.4v-17.6h-27.2v-23.3h53.4v53.4
			c-12.7,10.7-30,19.6-52.6,19.6C340.7,200.6,314.4,173.7,314.4,137.4z"/>
		<path d="M443.5,75.6h27v48.7h49.9V75.6h27v123h-27v-49.4h-49.9v49.4h-27V75.6z"/>
		<path d="M595.1,100.5h-37.4V75.6h101.9v24.9h-37.4v98.1h-27L595.1,100.5L595.1,100.5z"/>
		<path d="M665.7,180.6l16-19.2c11.1,9.2,22.6,15,36.7,15c11.1,0,17.8-4.4,17.8-11.6v-0.4c0-6.9-4.2-10.4-24.7-15.7
			c-24.7-6.3-40.8-13.2-40.8-37.6v-0.4c0-22.3,18-37.1,43.1-37.1c18,0,33.2,5.6,45.7,15.7l-14.1,20.3c-10.9-7.6-21.6-12.2-32-12.2
			c-10.4,0-15.8,4.8-15.8,10.7v0.4c0,8.1,5.3,10.7,26.5,16.2c24.9,6.5,39,15.5,39,36.9v0.4c0,24.4-18.7,38.1-45.2,38.1
			C699.2,200.3,680.5,193.8,665.7,180.6z"/>
	</g>
	<g>
		<path d="M770.7,76.1h-5.4v-2.3h13.1v2.3h-5.3v14.5h-2.4V76.1z M782,73.8h2.6l6,9.2l5.9-9.2h2.5v16.7h-2.3V77.7l-6,9.1h-0.3
			l-5.9-9.1v12.8H782V73.8z"/>
	</g>
</g>
</svg>
