<?xml version="1.0" encoding="utf-8"?>
<!-- Generator: Adobe Illustrator 16.0.0, SVG Export Plug-In . SVG Version: 6.00 Build 0)  -->
<!DOCTYPE svg PUBLIC "-//W3C//DTD SVG 1.1//EN" "http://www.w3.org/Graphics/SVG/1.1/DTD/svg11.dtd">
<svg version="1.1" id="Layer_1" xmlns="http://www.w3.org/2000/svg" xmlns:xlink="http://www.w3.org/1999/xlink" x="0px" y="0px"
	 width="732.03px" height="134.72px" viewBox="0 51.944 732.03 134.72" enable-background="new 0 51.944 732.03 134.72"
	 xml:space="preserve">
<g>
	<path fill="#338799" d="M166.454,107.361c-3.12-36.607-42.415-60.936-87.768-54.338C33.333,59.616-0.908,94.639,2.21,131.246
		c3.119,36.605,42.414,60.935,87.768,54.339C135.332,178.988,169.571,143.967,166.454,107.361z M100.426,167.188
		c-25.852,5.683-51.381-10.058-57.023-35.156c-5.642-25.102,10.743-50.058,36.597-55.737c25.852-5.683,51.382,10.055,57.024,35.157
		C142.664,136.551,126.281,161.506,100.426,167.188z"/>
	<path fill="#99DDDD" d="M79.999,76.294c-25.854,5.679-42.238,30.635-36.597,55.737c5.643,25.099,31.171,40.839,57.023,35.156
		c25.855-5.682,42.238-30.637,36.598-55.736C131.381,86.35,105.851,70.611,79.999,76.294z M84.098,146.891
		c-16.055,0-29.07-12.193-29.07-27.234s13.016-27.232,29.07-27.232c16.053,0,29.068,12.191,29.068,27.232
		S100.151,146.891,84.098,146.891z"/>
</g>
<g>
	<g>
		<g>
			<path fill="#338799" d="M214.771,161.07V65.871h18.146l15.725,37.289c3.024,7.344,8.015,19.633,10.887,27.824h0.302
				c-0.604-10.027-1.965-26.553-1.965-44.068V65.871h17.389v95.199H257.11l-15.575-36.159c-3.327-8.051-8.014-20.057-10.283-28.673
				h-0.302c0.454,9.605,1.21,24.295,1.21,43.362v21.47H214.771z"/>
			<path fill="#338799" d="M306.711,133.104c0.302,10.734,6.955,14.689,15.726,14.689c5.595,0,10.584-1.13,14.062-2.26l2.722,13.276
				c-5.142,1.837-12.853,3.107-20.413,3.107c-20.111,0-31.15-12.429-31.15-34.04c0-23.164,12.854-37.005,29.638-37.005
				c15.876,0,25.1,11.723,25.1,32.627c0,4.943-0.15,7.627-0.604,9.604H306.711z M324.402,120.109c0-8.898-2.419-15.82-8.316-15.82
				c-6.502,0-9.073,8.898-9.224,15.82H324.402z"/>
			<path fill="#338799" d="M367.501,92.001l3.932,29.803c1.058,7.485,1.965,14.406,2.57,20.903h0.453
				c1.209-6.497,2.722-14.124,4.082-20.622l6.503-30.084h15.271l6.351,29.379c1.513,7.768,2.873,14.547,3.78,21.327h0.453
				c0.454-6.497,1.361-13.7,2.571-21.187l4.537-29.52h19.506l-19.054,69.069h-16.784l-5.595-24.153
				c-1.512-6.356-2.872-13.7-3.78-21.61h-0.302c-0.907,8.051-2.57,15.254-4.233,21.752l-6.351,24.012h-16.936l-18.145-69.069
				H367.501z"/>
			<path fill="#338799" d="M471.537,67.284c6.2-1.13,14.063-1.836,21.623-1.836c10.888,0,20.565,1.413,27.219,7.063
				c6.197,5.226,8.013,11.582,8.013,19.774c0,10.169-5.292,19.351-15.726,23.87v0.282c6.956,2.542,10.434,8.616,12.398,18.786
				c1.967,10.593,4.688,22.316,6.504,25.848H510.85c-1.209-2.684-3.477-12.289-4.989-22.741
				c-1.813-11.864-4.989-15.254-11.642-15.254h-2.873v37.995h-19.81V67.284z M491.346,108.81h3.477
				c8.618,0,13.609-6.497,13.609-14.831c0-8.051-3.479-13.842-12.4-14.125c-1.661,0-3.628,0.141-4.686,0.565V108.81z"/>
			<path fill="#338799" d="M556.823,133.104c0.302,10.734,6.955,14.689,15.725,14.689c5.596,0,10.585-1.13,14.063-2.26l2.722,13.276
				c-5.142,1.837-12.854,3.107-20.414,3.107c-20.11,0-31.148-12.429-31.148-34.04c0-23.164,12.853-37.005,29.636-37.005
				c15.878,0,25.103,11.723,25.103,32.627c0,4.943-0.151,7.627-0.606,9.604H556.823z M574.514,120.109
				c0-8.898-2.42-15.82-8.317-15.82c-6.501,0-9.072,8.898-9.224,15.82H574.514z"/>
			<path fill="#338799" d="M603.7,63.329h19.808v97.741H603.7V63.329z"/>
			<path fill="#338799" d="M657.531,73.64c0.151,5.932-4.385,10.028-10.434,10.028c-5.444,0-9.98-4.096-9.829-10.028
				c-0.151-6.215,4.688-10.028,10.132-10.028C653.146,63.611,657.531,67.425,657.531,73.64z M637.723,161.07V92.001h19.808v69.069
				H637.723z"/>
			<path fill="#338799" d="M712.42,159.939c-1.967,0.848-6.956,1.978-12.552,1.978c-18.748,0-30.997-12.146-30.997-34.745
				c0-21.328,13.458-36.159,33.871-36.159c4.687,0,8.922,0.989,10.887,1.836l-2.571,14.547c-1.662-0.564-4.082-1.271-7.409-1.271
				c-9.526,0-15.119,8.475-15.119,20.48c0,12.57,5.593,20.198,14.817,20.198c2.873,0,5.293-0.424,7.409-1.413L712.42,159.939z"/>
		</g>
		<g>
			<path fill="#338799" d="M724.253,146.354c1.307,0,2.582,0.334,3.826,1.005c1.244,0.67,2.214,1.63,2.908,2.877
				c0.694,1.249,1.042,2.55,1.042,3.904c0,1.341-0.342,2.63-1.026,3.867c-0.684,1.238-1.643,2.199-2.877,2.883
				c-1.235,0.685-2.525,1.026-3.873,1.026s-2.639-0.342-3.872-1.026c-1.235-0.684-2.196-1.645-2.883-2.883
				c-0.688-1.237-1.032-2.526-1.032-3.867c0-1.354,0.35-2.655,1.047-3.904c0.698-1.247,1.669-2.207,2.914-2.877
				C721.671,146.688,722.947,146.354,724.253,146.354z M724.253,147.644c-1.093,0-2.157,0.279-3.192,0.84s-1.844,1.361-2.429,2.403
				c-0.584,1.041-0.876,2.126-0.876,3.254c0,1.12,0.287,2.195,0.86,3.224c0.574,1.027,1.377,1.828,2.408,2.402
				s2.107,0.861,3.229,0.861c1.12,0,2.197-0.287,3.229-0.861s1.832-1.375,2.403-2.402c0.57-1.028,0.855-2.104,0.855-3.224
				c0-1.128-0.291-2.213-0.872-3.254c-0.58-1.042-1.39-1.843-2.429-2.403C726.402,147.923,725.339,147.644,724.253,147.644z
				 M720.839,158.441v-8.374h2.878c0.983,0,1.694,0.076,2.135,0.231c0.439,0.154,0.79,0.425,1.052,0.81s0.392,0.794,0.392,1.228
				c0,0.612-0.218,1.145-0.654,1.598c-0.437,0.455-1.016,0.709-1.737,0.764c0.295,0.124,0.532,0.272,0.711,0.444
				c0.337,0.329,0.75,0.883,1.238,1.66l1.021,1.64h-1.65l-0.743-1.32c-0.584-1.038-1.055-1.688-1.412-1.949
				c-0.247-0.192-0.608-0.288-1.083-0.288h-0.794v3.558H720.839z M722.191,153.728h1.64c0.783,0,1.318-0.116,1.604-0.351
				c0.285-0.233,0.428-0.543,0.428-0.928c0-0.248-0.068-0.47-0.206-0.665c-0.138-0.196-0.328-0.343-0.572-0.438
				c-0.244-0.097-0.695-0.145-1.355-0.145h-1.537V153.728z"/>
		</g>
	</g>
</g>
</svg>
